# xmcd CD database file
#
# Track frame offsets:
#	150
#	8322
#	20295
#	29745
#	43392
#	55540
#	65588
#	78338
#	88395
#	94088
#	108400
#	118553
#	129445
#	139706
#	146909
#	161832
#	173396
#	187052
#	199125
#	211713
#
# Disc length: 2977 seconds
#
# Revision: 0
# Processed by: cddbd v1.5.1PL0 Copyright (c) Steve Scherf et al.
# Submitted via: CdAid (MTCDDB.DLL V2003.07.15)
#
DISCID=140b9f14
DTITLE=Willie Nelson - 20 Golden Greats
DYEAR=1989
DGENRE=Country
TTITLE0=Things To Remember
TTITLE1=Night Life
TTITLE2=One Step Beyond
TTITLE3=The Last Letter
TTITLE4=Following Me Around
TTITLE5=I Didn't Sleep A Wink
TTITLE6=She's Not For You
TTITLE7=A New Way To Cry
TTITLE8=The Goast
TTITLE9=Rainy Day Blues
TTITLE10=Healing Hands Of Time
TTITLE11=Blame It On The Times
TTITLE12=Broken Promises
TTITLE13=Both Ends Of The Candle
TTITLE14=What Can You Do To Me Now
TTITLE15=Touch Me
TTITLE16=Undo The Wrong
TTITLE17=Happiness Lives Next Door
TTITLE18=Shelter Of My Arms
TTITLE19=December Day
EXTD=ID3G:   2 YEAR: 1989
EXTT0=
EXTT1=
EXTT2=
EXTT3=
EXTT4=
EXTT5=
EXTT6=
EXTT7=
EXTT8=
EXTT9=
EXTT10=
EXTT11=
EXTT12=
EXTT13=
EXTT14=
EXTT15=
EXTT16=
EXTT17=
EXTT18=
EXTT19=
PLAYORDER=
